<mxfile host="app.diagrams.net" modified="2023-04-25T06:31:51.700Z" agent="Mozilla/5.0 (Windows NT 10.0; Win64; x64) AppleWebKit/537.36 (KHTML, like Gecko) Chrome/112.0.0.0 Safari/537.36" etag="UJ6mMIZrRcnTLdOzRNUC" version="21.2.1" type="github">
  <diagram id="1euNr-ZvP-c1quhRwDG3" name="Page-1">
    <mxGraphModel dx="1050" dy="645" grid="1" gridSize="10" guides="1" tooltips="1" connect="1" arrows="1" fold="1" page="1" pageScale="1" pageWidth="827" pageHeight="1169" math="0" shadow="0">
      <root>
        <mxCell id="0" />
        <mxCell id="1" parent="0" />
        <mxCell id="cQ6EdihxnBdIqwO5FPxj-1" value="职工号" style="rounded=1;whiteSpace=wrap;html=1;" parent="1" vertex="1">
          <mxGeometry x="110" y="240" width="50" height="20" as="geometry" />
        </mxCell>
        <mxCell id="qFNM6MwS37XUXvukyAiJ-1" value="姓名" style="rounded=1;whiteSpace=wrap;html=1;" vertex="1" parent="1">
          <mxGeometry x="180" y="240" width="50" height="20" as="geometry" />
        </mxCell>
        <mxCell id="qFNM6MwS37XUXvukyAiJ-2" value="职工" style="rounded=0;whiteSpace=wrap;html=1;" vertex="1" parent="1">
          <mxGeometry x="200" y="310" width="90" height="30" as="geometry" />
        </mxCell>
        <mxCell id="qFNM6MwS37XUXvukyAiJ-3" value="" style="endArrow=none;html=1;rounded=0;exitX=0.182;exitY=0.02;exitDx=0;exitDy=0;exitPerimeter=0;entryX=0.75;entryY=1;entryDx=0;entryDy=0;" edge="1" parent="1" source="qFNM6MwS37XUXvukyAiJ-2" target="cQ6EdihxnBdIqwO5FPxj-1">
          <mxGeometry width="50" height="50" relative="1" as="geometry">
            <mxPoint x="260" y="310" as="sourcePoint" />
            <mxPoint x="310" y="260" as="targetPoint" />
          </mxGeometry>
        </mxCell>
        <mxCell id="qFNM6MwS37XUXvukyAiJ-4" value="" style="endArrow=none;html=1;rounded=0;exitX=0.387;exitY=-0.007;exitDx=0;exitDy=0;exitPerimeter=0;entryX=0.25;entryY=1;entryDx=0;entryDy=0;" edge="1" parent="1" source="qFNM6MwS37XUXvukyAiJ-2" target="qFNM6MwS37XUXvukyAiJ-1">
          <mxGeometry width="50" height="50" relative="1" as="geometry">
            <mxPoint x="420" y="320" as="sourcePoint" />
            <mxPoint x="470" y="270" as="targetPoint" />
          </mxGeometry>
        </mxCell>
        <mxCell id="qFNM6MwS37XUXvukyAiJ-5" value="地址" style="rounded=1;whiteSpace=wrap;html=1;" vertex="1" parent="1">
          <mxGeometry x="250" y="240" width="50" height="20" as="geometry" />
        </mxCell>
        <mxCell id="qFNM6MwS37XUXvukyAiJ-6" value="商品部" style="rounded=1;whiteSpace=wrap;html=1;" vertex="1" parent="1">
          <mxGeometry x="320" y="240" width="50" height="20" as="geometry" />
        </mxCell>
        <mxCell id="qFNM6MwS37XUXvukyAiJ-7" value="" style="endArrow=none;html=1;rounded=0;entryX=0.5;entryY=1;entryDx=0;entryDy=0;exitX=0.5;exitY=0;exitDx=0;exitDy=0;" edge="1" parent="1" source="qFNM6MwS37XUXvukyAiJ-2" target="qFNM6MwS37XUXvukyAiJ-5">
          <mxGeometry width="50" height="50" relative="1" as="geometry">
            <mxPoint x="310" y="400" as="sourcePoint" />
            <mxPoint x="360" y="350" as="targetPoint" />
          </mxGeometry>
        </mxCell>
        <mxCell id="qFNM6MwS37XUXvukyAiJ-8" value="" style="endArrow=none;html=1;rounded=0;exitX=0.75;exitY=0;exitDx=0;exitDy=0;" edge="1" parent="1" source="qFNM6MwS37XUXvukyAiJ-2">
          <mxGeometry width="50" height="50" relative="1" as="geometry">
            <mxPoint x="290" y="310" as="sourcePoint" />
            <mxPoint x="340" y="260" as="targetPoint" />
          </mxGeometry>
        </mxCell>
        <mxCell id="qFNM6MwS37XUXvukyAiJ-9" value="职工" style="rounded=1;whiteSpace=wrap;html=1;" vertex="1" parent="1">
          <mxGeometry x="430" y="240" width="50" height="20" as="geometry" />
        </mxCell>
        <mxCell id="qFNM6MwS37XUXvukyAiJ-10" value="经理" style="rounded=1;whiteSpace=wrap;html=1;" vertex="1" parent="1">
          <mxGeometry x="500" y="240" width="50" height="20" as="geometry" />
        </mxCell>
        <mxCell id="qFNM6MwS37XUXvukyAiJ-42" value="" style="edgeStyle=orthogonalEdgeStyle;rounded=0;orthogonalLoop=1;jettySize=auto;html=1;" edge="1" parent="1" source="qFNM6MwS37XUXvukyAiJ-11" target="qFNM6MwS37XUXvukyAiJ-38">
          <mxGeometry relative="1" as="geometry" />
        </mxCell>
        <mxCell id="qFNM6MwS37XUXvukyAiJ-11" value="商品部" style="rounded=0;whiteSpace=wrap;html=1;" vertex="1" parent="1">
          <mxGeometry x="520" y="310" width="90" height="30" as="geometry" />
        </mxCell>
        <mxCell id="qFNM6MwS37XUXvukyAiJ-12" value="" style="endArrow=none;html=1;rounded=0;exitX=0.182;exitY=0.02;exitDx=0;exitDy=0;exitPerimeter=0;entryX=0.75;entryY=1;entryDx=0;entryDy=0;" edge="1" parent="1" source="qFNM6MwS37XUXvukyAiJ-11" target="qFNM6MwS37XUXvukyAiJ-9">
          <mxGeometry width="50" height="50" relative="1" as="geometry">
            <mxPoint x="580" y="310" as="sourcePoint" />
            <mxPoint x="630" y="260" as="targetPoint" />
          </mxGeometry>
        </mxCell>
        <mxCell id="qFNM6MwS37XUXvukyAiJ-13" value="" style="endArrow=none;html=1;rounded=0;exitX=0.387;exitY=-0.007;exitDx=0;exitDy=0;exitPerimeter=0;entryX=0.25;entryY=1;entryDx=0;entryDy=0;" edge="1" parent="1" source="qFNM6MwS37XUXvukyAiJ-11" target="qFNM6MwS37XUXvukyAiJ-10">
          <mxGeometry width="50" height="50" relative="1" as="geometry">
            <mxPoint x="740" y="320" as="sourcePoint" />
            <mxPoint x="790" y="270" as="targetPoint" />
          </mxGeometry>
        </mxCell>
        <mxCell id="qFNM6MwS37XUXvukyAiJ-15" value="商品" style="rounded=1;whiteSpace=wrap;html=1;" vertex="1" parent="1">
          <mxGeometry x="570" y="240" width="50" height="20" as="geometry" />
        </mxCell>
        <mxCell id="qFNM6MwS37XUXvukyAiJ-16" value="" style="endArrow=none;html=1;rounded=0;entryX=0.5;entryY=1;entryDx=0;entryDy=0;exitX=0.5;exitY=0;exitDx=0;exitDy=0;" edge="1" parent="1" source="qFNM6MwS37XUXvukyAiJ-11">
          <mxGeometry width="50" height="50" relative="1" as="geometry">
            <mxPoint x="630" y="400" as="sourcePoint" />
            <mxPoint x="595" y="260" as="targetPoint" />
          </mxGeometry>
        </mxCell>
        <mxCell id="qFNM6MwS37XUXvukyAiJ-19" value="商品名" style="rounded=1;whiteSpace=wrap;html=1;" vertex="1" parent="1">
          <mxGeometry x="25" y="485" width="50" height="20" as="geometry" />
        </mxCell>
        <mxCell id="qFNM6MwS37XUXvukyAiJ-20" value="生产厂家" style="rounded=1;whiteSpace=wrap;html=1;" vertex="1" parent="1">
          <mxGeometry x="95" y="485" width="50" height="20" as="geometry" />
        </mxCell>
        <mxCell id="qFNM6MwS37XUXvukyAiJ-21" value="商品" style="rounded=0;whiteSpace=wrap;html=1;" vertex="1" parent="1">
          <mxGeometry x="115" y="555" width="90" height="30" as="geometry" />
        </mxCell>
        <mxCell id="qFNM6MwS37XUXvukyAiJ-22" value="" style="endArrow=none;html=1;rounded=0;exitX=0.182;exitY=0.02;exitDx=0;exitDy=0;exitPerimeter=0;entryX=0.75;entryY=1;entryDx=0;entryDy=0;" edge="1" parent="1" source="qFNM6MwS37XUXvukyAiJ-21" target="qFNM6MwS37XUXvukyAiJ-19">
          <mxGeometry width="50" height="50" relative="1" as="geometry">
            <mxPoint x="175" y="555" as="sourcePoint" />
            <mxPoint x="225" y="505" as="targetPoint" />
          </mxGeometry>
        </mxCell>
        <mxCell id="qFNM6MwS37XUXvukyAiJ-23" value="" style="endArrow=none;html=1;rounded=0;exitX=0.387;exitY=-0.007;exitDx=0;exitDy=0;exitPerimeter=0;entryX=0.25;entryY=1;entryDx=0;entryDy=0;" edge="1" parent="1" source="qFNM6MwS37XUXvukyAiJ-21" target="qFNM6MwS37XUXvukyAiJ-20">
          <mxGeometry width="50" height="50" relative="1" as="geometry">
            <mxPoint x="335" y="565" as="sourcePoint" />
            <mxPoint x="385" y="515" as="targetPoint" />
          </mxGeometry>
        </mxCell>
        <mxCell id="qFNM6MwS37XUXvukyAiJ-24" value="价格" style="rounded=1;whiteSpace=wrap;html=1;" vertex="1" parent="1">
          <mxGeometry x="165" y="485" width="50" height="20" as="geometry" />
        </mxCell>
        <mxCell id="qFNM6MwS37XUXvukyAiJ-25" value="型号" style="rounded=1;whiteSpace=wrap;html=1;" vertex="1" parent="1">
          <mxGeometry x="235" y="485" width="50" height="20" as="geometry" />
        </mxCell>
        <mxCell id="qFNM6MwS37XUXvukyAiJ-26" value="" style="endArrow=none;html=1;rounded=0;entryX=0.5;entryY=1;entryDx=0;entryDy=0;exitX=0.5;exitY=0;exitDx=0;exitDy=0;" edge="1" parent="1" source="qFNM6MwS37XUXvukyAiJ-21" target="qFNM6MwS37XUXvukyAiJ-24">
          <mxGeometry width="50" height="50" relative="1" as="geometry">
            <mxPoint x="225" y="645" as="sourcePoint" />
            <mxPoint x="275" y="595" as="targetPoint" />
          </mxGeometry>
        </mxCell>
        <mxCell id="qFNM6MwS37XUXvukyAiJ-27" value="" style="endArrow=none;html=1;rounded=0;exitX=0.644;exitY=0.033;exitDx=0;exitDy=0;exitPerimeter=0;" edge="1" parent="1" source="qFNM6MwS37XUXvukyAiJ-21">
          <mxGeometry width="50" height="50" relative="1" as="geometry">
            <mxPoint x="205" y="555" as="sourcePoint" />
            <mxPoint x="255" y="505" as="targetPoint" />
          </mxGeometry>
        </mxCell>
        <mxCell id="qFNM6MwS37XUXvukyAiJ-28" value="内部商品代号" style="rounded=1;whiteSpace=wrap;html=1;" vertex="1" parent="1">
          <mxGeometry x="299" y="485" width="86" height="20" as="geometry" />
        </mxCell>
        <mxCell id="qFNM6MwS37XUXvukyAiJ-29" value="" style="endArrow=none;html=1;rounded=0;exitX=0.75;exitY=0;exitDx=0;exitDy=0;" edge="1" parent="1" source="qFNM6MwS37XUXvukyAiJ-21">
          <mxGeometry width="50" height="50" relative="1" as="geometry">
            <mxPoint x="285" y="555" as="sourcePoint" />
            <mxPoint x="335" y="505" as="targetPoint" />
          </mxGeometry>
        </mxCell>
        <mxCell id="qFNM6MwS37XUXvukyAiJ-30" value="厂名" style="rounded=1;whiteSpace=wrap;html=1;direction=east;flipH=0;flipV=0;" vertex="1" parent="1">
          <mxGeometry x="465" y="517.5" width="50" height="20" as="geometry" />
        </mxCell>
        <mxCell id="qFNM6MwS37XUXvukyAiJ-31" value="地址" style="rounded=1;whiteSpace=wrap;html=1;direction=east;flipH=0;flipV=0;" vertex="1" parent="1">
          <mxGeometry x="535" y="517.5" width="50" height="20" as="geometry" />
        </mxCell>
        <mxCell id="qFNM6MwS37XUXvukyAiJ-32" value="生产厂家" style="rounded=0;whiteSpace=wrap;html=1;direction=east;flipH=0;flipV=0;" vertex="1" parent="1">
          <mxGeometry x="525" y="452.5" width="90" height="30" as="geometry" />
        </mxCell>
        <mxCell id="qFNM6MwS37XUXvukyAiJ-33" value="" style="endArrow=none;html=1;rounded=0;exitX=0.25;exitY=1;exitDx=0;exitDy=0;entryX=0.75;entryY=0;entryDx=0;entryDy=0;" edge="1" parent="1" source="qFNM6MwS37XUXvukyAiJ-32" target="qFNM6MwS37XUXvukyAiJ-30">
          <mxGeometry width="50" height="50" relative="1" as="geometry">
            <mxPoint x="642.2399999999998" y="481.3000000000002" as="sourcePoint" />
            <mxPoint x="692.2399999999998" y="431.3000000000002" as="targetPoint" />
          </mxGeometry>
        </mxCell>
        <mxCell id="qFNM6MwS37XUXvukyAiJ-34" value="" style="endArrow=none;html=1;rounded=0;exitX=0.5;exitY=1;exitDx=0;exitDy=0;entryX=0.5;entryY=0;entryDx=0;entryDy=0;" edge="1" parent="1" source="qFNM6MwS37XUXvukyAiJ-32" target="qFNM6MwS37XUXvukyAiJ-31">
          <mxGeometry width="50" height="50" relative="1" as="geometry">
            <mxPoint x="765.3400000000001" y="492.9200000000001" as="sourcePoint" />
            <mxPoint x="815.3400000000001" y="442.9200000000001" as="targetPoint" />
          </mxGeometry>
        </mxCell>
        <mxCell id="qFNM6MwS37XUXvukyAiJ-35" value="商品价格" style="rounded=1;whiteSpace=wrap;html=1;direction=east;flipH=0;flipV=0;" vertex="1" parent="1">
          <mxGeometry x="605" y="517.5" width="60" height="20" as="geometry" />
        </mxCell>
        <mxCell id="qFNM6MwS37XUXvukyAiJ-36" value="" style="endArrow=none;html=1;rounded=0;entryX=0.5;entryY=0;entryDx=0;entryDy=0;exitX=0.5;exitY=0;exitDx=0;exitDy=0;" edge="1" parent="1" source="qFNM6MwS37XUXvukyAiJ-32">
          <mxGeometry width="50" height="50" relative="1" as="geometry">
            <mxPoint x="606" y="593.5" as="sourcePoint" />
            <mxPoint x="571" y="453.5" as="targetPoint" />
          </mxGeometry>
        </mxCell>
        <mxCell id="qFNM6MwS37XUXvukyAiJ-40" value="1" style="edgeStyle=orthogonalEdgeStyle;rounded=0;orthogonalLoop=1;jettySize=auto;html=1;entryX=1;entryY=0.5;entryDx=0;entryDy=0;endArrow=none;endFill=0;labelPosition=center;verticalLabelPosition=top;align=center;verticalAlign=bottom;" edge="1" parent="1" source="qFNM6MwS37XUXvukyAiJ-38" target="qFNM6MwS37XUXvukyAiJ-2">
          <mxGeometry relative="1" as="geometry" />
        </mxCell>
        <mxCell id="qFNM6MwS37XUXvukyAiJ-41" value="n" style="edgeStyle=orthogonalEdgeStyle;rounded=0;orthogonalLoop=1;jettySize=auto;html=1;exitX=1;exitY=0.5;exitDx=0;exitDy=0;entryX=0;entryY=0.5;entryDx=0;entryDy=0;endArrow=none;endFill=0;labelPosition=center;verticalLabelPosition=top;align=center;verticalAlign=bottom;" edge="1" parent="1" source="qFNM6MwS37XUXvukyAiJ-38" target="qFNM6MwS37XUXvukyAiJ-11">
          <mxGeometry relative="1" as="geometry" />
        </mxCell>
        <mxCell id="qFNM6MwS37XUXvukyAiJ-38" value="工作" style="rhombus;whiteSpace=wrap;html=1;" vertex="1" parent="1">
          <mxGeometry x="364" y="310" width="80" height="30" as="geometry" />
        </mxCell>
        <mxCell id="qFNM6MwS37XUXvukyAiJ-43" value="" style="endArrow=none;html=1;rounded=0;entryX=0.75;entryY=1;entryDx=0;entryDy=0;exitX=0.393;exitY=0;exitDx=0;exitDy=0;exitPerimeter=0;" edge="1" parent="1" source="qFNM6MwS37XUXvukyAiJ-35" target="qFNM6MwS37XUXvukyAiJ-32">
          <mxGeometry width="50" height="50" relative="1" as="geometry">
            <mxPoint x="635" y="512.5" as="sourcePoint" />
            <mxPoint x="685" y="462.5" as="targetPoint" />
          </mxGeometry>
        </mxCell>
        <mxCell id="qFNM6MwS37XUXvukyAiJ-47" value="n" style="edgeStyle=orthogonalEdgeStyle;rounded=0;orthogonalLoop=1;jettySize=auto;html=1;exitX=0.5;exitY=0;exitDx=0;exitDy=0;entryX=0.5;entryY=1;entryDx=0;entryDy=0;endArrow=none;endFill=0;labelPosition=right;verticalLabelPosition=middle;align=left;verticalAlign=middle;" edge="1" parent="1" source="qFNM6MwS37XUXvukyAiJ-45" target="qFNM6MwS37XUXvukyAiJ-11">
          <mxGeometry relative="1" as="geometry" />
        </mxCell>
        <mxCell id="qFNM6MwS37XUXvukyAiJ-48" value="m" style="edgeStyle=orthogonalEdgeStyle;rounded=0;orthogonalLoop=1;jettySize=auto;html=1;exitX=0.5;exitY=1;exitDx=0;exitDy=0;endArrow=none;endFill=0;labelPosition=right;verticalLabelPosition=middle;align=left;verticalAlign=middle;" edge="1" parent="1" source="qFNM6MwS37XUXvukyAiJ-45">
          <mxGeometry relative="1" as="geometry">
            <mxPoint x="565" y="450" as="targetPoint" />
          </mxGeometry>
        </mxCell>
        <mxCell id="qFNM6MwS37XUXvukyAiJ-45" value="供应" style="rhombus;whiteSpace=wrap;html=1;" vertex="1" parent="1">
          <mxGeometry x="525" y="380" width="80" height="30" as="geometry" />
        </mxCell>
        <mxCell id="qFNM6MwS37XUXvukyAiJ-46" value="工作" style="rhombus;whiteSpace=wrap;html=1;" vertex="1" parent="1">
          <mxGeometry x="470" y="150" width="80" height="30" as="geometry" />
        </mxCell>
      </root>
    </mxGraphModel>
  </diagram>
</mxfile>
